<?xml version="1.0" encoding="utf-8"?>
<!-- Generator: Adobe Illustrator 21.0.0, SVG Export Plug-In . SVG Version: 6.00 Build 0)  -->
<svg version="1.1" id="Layer_1" 
  xmlns="http://www.w3.org/2000/svg" 
  xmlns:xlink="http://www.w3.org/1999/xlink" x="0px" y="0px" viewBox="0 0 24 24" style="enable-background:new 0 0 24 24;" xml:space="preserve">
  <style type="text/css">
	.st0{display:none;opacity:0.33;}
	.st1{display:none;fill:#A8DADC;}
	.st2{display:none;fill:#10BDC7;}
	.st3{fill:#10BDC7;}
	.st4{fill:#A8DADC;}
  </style>
  <path class="st0" d="M17.9,6.2L12.4,8L3,13l3,3l-2,1l6.9,6.9c0.4,0,0.7,0.1,1.1,0.1c6.6,0,11.9-5.3,12-11.8L17.9,6.2z"/>
  <polyline class="st1" points="11.1,4.8 11.1,3.8 10.2,3.8 10.2,2.9 13.8,2.9 13.8,3.8 12.9,3.8 12.9,4.8 "/>
  <path class="st2" d="M18.4,12.9h1.7c0-4.5-3.7-8.2-8.2-8.2s-8.2,3.7-8.2,8.2h1.7H18.4z M12,6.5c3,0,5.5,2,6.2,4.8H5.8
	C6.5,8.5,9,6.5,12,6.5z"/>
  <path class="st1" d="M16.9,17.2c-1.2,1.4-2.9,2.2-4.9,2.2c-3,0-5.4-2-6.2-4.7H4c0.8,3.6,4.1,6.4,8,6.4c2.5,0,4.6-1.1,6.1-2.8
	L16.9,17.2z"/>
  <path class="st3" d="M13.5,3.1V1.5H15V0h-3c0,2.1,0,4.1,0,6c3.1,0,5.7,1.9,6.9,4.5H12c0,1,0,2,0,3h7.5H21h1.5
	C22.5,8.2,18.6,3.8,13.5,3.1z"/>
  <path class="st4" d="M5.1,10.5C6.3,7.9,8.9,6,12,6c0-1.9,0-3.9,0-6H9v1.5h1.5v1.6c-5.1,0.7-9,5.1-9,10.4H3h1.5H12c0-1,0-2,0-3H5.1z" />
  <path class="st3" d="M17.3,18.8C15.9,20.1,14.1,21,12,21c-3.1,0-5.7-1.9-6.9-4.5H1.9C3.2,20.8,7.2,24,12,24c2.9,0,5.5-1.2,7.4-3.1
	L17.3,18.8z"/>
</svg>
